# xmcd
#
# Track frame offsets:
#	150
#	71248
#	114056
#	145804
#	171966
#	221925
#	229663
#	256934
#	284090
#	335365
#
# Disc length: 4735 seconds
#
# Revision: 0
# Processed by: cddbd v1.5.2PL0 Copyright (c) Steve Scherf et al.
# Submitted via: audiograbber 1.83.01
#
DISCID=9c127d0a
DTITLE=Grateful Dead - 92-05-24 Shoreline Amphitheatre, Mountain View CA
DYEAR=1900
DGENRE=
TTITLE0=Eyes Of The World
TTITLE1=Samson and Delilah
TTITLE2=So Many Roads
TTITLE3=Way To Go Home
TTITLE4=Corrina
TTITLE5=Drums
TTITLE6=Space
TTITLE7=The Last Time
TTITLE8=Morning Dew
TTITLE9=Johnny B Goode
EXTD=
EXTT0=
EXTT1=
EXTT2=
EXTT3=
EXTT4=
EXTT5=
EXTT6=
EXTT7=
EXTT8=
EXTT9=
PLAYORDER=
